<?xml version="1.0" encoding="utf-8"?>
<!-- Generator: Adobe Illustrator 16.0.0, SVG Export Plug-In . SVG Version: 6.00 Build 0)  -->
<!DOCTYPE svg PUBLIC "-//W3C//DTD SVG 1.1//EN" "http://www.w3.org/Graphics/SVG/1.1/DTD/svg11.dtd">
<svg version="1.1" id="Layer_1" xmlns:sketch="http://www.bohemiancoding.com/sketch/ns"
	 xmlns="http://www.w3.org/2000/svg" xmlns:xlink="http://www.w3.org/1999/xlink" x="0px" y="0px" width="338px" height="338px"
	 viewBox="-0.335 -0.335 338 338" enable-background="new -0.335 -0.335 338 338" xml:space="preserve">
<title>Slice 1</title>
<description>Created with Sketch (http://www.bohemiancoding.com/sketch)</description>
<g id="Page_1">
	<g id="Layer_1_1_">
		<path id="Shape_1_" fill="#1572B6" d="M47.012,303.614L19.939-0.006h297.451l-27.098,303.572l-121.811,33.77L47.012,303.614z"/>
		<path id="Shape_2_" fill="#33A9DC" d="M168.667,311.522l98.427-27.287l23.157-259.416H168.667V311.522z"/>
		<g id="Group" transform="translate(55.000000, 142.000000)">
			<path id="Shape_3_" fill="#FFFFFF" d="M113.666-7.181h49.275l3.401-38.132h-52.677v-37.238h0.129h93.246l-0.893,9.991
				l-9.152,102.617h-83.33V-7.181L113.666-7.181z"/>
			<path id="Shape_4_" fill="#EBEBEB" d="M113.89,89.528l-0.163,0.045L72.254,78.374l-2.651-29.696h-20.15H32.224l5.216,58.467
				l76.277,21.176l0.173-0.047V89.528z"/>
			<path id="Shape_5_" fill="#FFFFFF" d="M159.775,28.479l-4.483,49.872L113.761,89.56v38.741l76.339-21.157l0.561-6.289
				l6.479-72.376H159.775z"/>
			<path id="Shape_6_" fill="#EBEBEB" d="M113.795-82.551v23.128v14.019v0.092H23.967h-0.118l-0.747-8.369L21.404-72.56l-0.89-9.991
				H113.795z"/>
			<path id="Shape_7_" fill="#EBEBEB" d="M113.666-7.177v23.129v14.019v0.092H72.838H72.72l-0.746-8.369L70.275,2.814l-0.892-9.991
				H113.666z"/>
		</g>
	</g>
</g>
</svg>
