<?xml version="1.0" encoding="utf-8"?>
<!-- Generator: Adobe Illustrator 16.0.0, SVG Export Plug-In . SVG Version: 6.00 Build 0)  -->
<!DOCTYPE svg PUBLIC "-//W3C//DTD SVG 1.1//EN" "http://www.w3.org/Graphics/SVG/1.1/DTD/svg11.dtd">
<svg version="1.1" id="Layer_1" xmlns="http://www.w3.org/2000/svg" xmlns:xlink="http://www.w3.org/1999/xlink" x="0px" y="0px"
	 width="500px" height="500px" viewBox="0 0 500 500" enable-background="new 0 0 500 500" xml:space="preserve">
<g>
	<path fill-rule="evenodd" clip-rule="evenodd" fill="#FDF5EA" d="M253.743,292.071c-7.912,7.717-12.853,17.564-17.714,27.12
		c-4.735,9.308-7.88,19.564-9.139,30.164c-0.083,0.706-0.571,1.365-0.87,2.047c-1.891-1.16-3.928-1.533-6.155-1.594
		c-27.968-0.78-54.562-7.292-79.885-19.17c-13.891-6.516-27.21-13.92-37.979-25.066c-20.053-20.755-24.971-44.873-15.572-72.074
		c5.493-15.898,14.699-29.819,23.236-44.098c2.922-4.888,6.162-9.584,8.731-14.684c0.755-1.499,1.468-3.126,3.488-3.339
		c1.265,0.646,1.547,1.929,1.709,3.101c1.026,7.389,4.782,13.173,10.327,17.942c4.945,9.261,11.885,16.822,19.949,23.435
		c0.839,0.688,1.633,1.455,2.639,1.856c3.547,1.415,4.458,4.168,3.546,7.523c-0.965,3.548,0.753,4.396,3.76,4.501
		c4.333,0.152,8.622,0.046,12.771-1.422c1.715,0.196,3.01,1.251,4.394,2.131c5.119,4.411,7.885,10.339,10.487,16.361
		c0.664,1.536,1.198,3.144,0.716,4.875c-2.246,4.07-3.958,8.345-4.933,12.9c-2.42,11.31,1.64,18.6,12.96,21.095
		c9.304,2.051,18.619,4.391,28.04,5.636c7.963,1.052,16.146,2.134,24.246,0.277C252.953,291.484,253.377,291.778,253.743,292.071z"
		/>
	<path fill-rule="evenodd" clip-rule="evenodd" fill="#FDF5EA" d="M304.711,340.258c0.425-4.592,2.733-8.726,2.852-13.458
		c0.394-15.715-4.111-29.558-14.897-41.181c0.347-1.349,1.408-2.029,2.562-2.478c11.804-4.588,17.284-14.848,22.435-25.271
		c2.791-5.648,5.211-11.425,8.735-16.736c2.886-4.348,3.69-9.752,5.742-14.578c2.24-5.266,4.215-6.744,10.042-7.071
		c7.146-0.401,13.593,2.47,20.36,3.836c12.611,4.744,24.726,16.536,24.307,32.875c-0.302,11.76-3.172,22.736-6.084,33.853
		c-0.424,1.618-1.342,3.112-1.033,4.87c0.292,1.113,1.083,1.99,1.47,3.059c0.191,1.93-1.118,3.152-2.221,4.383
		c-10.791,12.056-23.784,20.835-38.977,26.479c-9.259,3.438-18.571,6.635-28.215,8.797c-2.156,0.483-4.058,1.417-5.783,2.764
		C305.54,340.65,305.108,340.6,304.711,340.258z"/>
	<path fill-rule="evenodd" clip-rule="evenodd" fill="#0C0706" d="M191.74,251.294c-1.878-7.827-6.161-14.322-11.272-20.36
		c-3.837-2.789-7.194-6.212-11.415-8.505c-0.961-0.522-2.754-0.846-2.202-2.418c0.535-1.522,2.268-1.405,3.61-1.268
		c4.43,0.451,8.788,1.422,13.234,1.816c9.78,0.867,19.549,1.886,29.391,1.597c2.399-0.068,4.795,0.128,7.193,0.053
		c31.676-1.644,62.751-6.821,93.179-15.814c1.035-0.306,2.073-0.603,3.137-0.752c1.899-0.028,3.703-0.966,5.655-0.655
		c-1.934-0.181-3.824,0.444-5.758,0.275c-10.733-1.313-21.331-3.037-31.59-6.769c-7.83-2.849-12.321-8.292-15.036-15.794
		c-3.37-9.316-5.389-18.994-7.876-28.547c-1.169-4.493-2.448-8.954-5.099-12.844c-2.904-4.261-10.75-6.283-15.353-4.053
		c-1.662,0.805-2.385,2.365-3.116,3.891c-2.401,5.021-4.113,10.312-6.035,15.521c-3.479,9.433-7.455,18.602-13.679,26.644
		c-3.534,4.566-7.972,7.573-13.544,9.11c-8.352,2.303-16.891,3.461-25.458,4.506c-1.228,0.094-2.458,0-3.687,0.06
		c-5.846-0.278-11.682-0.042-17.553-0.661c-15.375-1.621-25.927-9.76-33.057-23.014c-1.243-2.312-2.374-4.68-3.54-7.031
		c-0.317-0.684-0.463-1.396-0.352-2.15c-3.427-10.974-7.324-21.803-9.728-33.091c-0.574-2.693-3.405-3.83-5.576-5.252
		c-2.62-1.716-5.139-3.472-5.388-6.996c-0.56-0.904-0.946-1.87-1.062-2.937c0.482-3.702,0.619-7.557,4.297-9.874
		c3.532-1.05,7.064-0.457,10.518,0.258c8.841,1.831,17.473-0.061,26.148-1.226c2.449-0.329,4.886-0.646,7.361-0.561
		c11.515-1.409,23.084-0.919,34.633-0.909c17.722,0.015,34.973,2.749,51.678,8.9c7.905,2.911,16.099,3.863,24.573,2.414
		c11.707-2.001,23.536-2.638,35.413-3.229c17.075-0.849,33.825,0.572,50.48,4.049c6.06,1.265,11.876,3.312,17.648,5.487
		c1.968,0.547,3.712,1.668,5.679,2.223c4.288,1.797,8.811,2.042,13.374,2.014c2.723-0.475,5.526-0.683,8.146-1.489
		c3.505-1.079,5.273,0.559,6.474,3.409c1.716,4.079,1.94,8.364,1.389,12.691c-0.413,3.251-3.073,4.741-5.62,5.534
		c-10.199,3.176-13.297,11.911-16.676,20.508c-0.333,2.651-1.953,4.772-2.928,7.162c-5.155,9.593-9.904,19.434-16.958,27.876
		c-0.678,0.682-1.503,1.097-2.416,1.356c-5.664,2.22-11.648,2.981-17.63,3.383c-3.935,0.265-6.547,1.831-8.654,5.1
		c-1.837,2.851-3.716,5.665-5.298,8.667c-0.733,1.142-1.58,2.214-2.152,3.457c-6.047,11.501-12.935,22.565-17.946,34.604
		c-0.416,0.999-1.068,1.856-2.062,2.391c-2.964,0.462-4.314-1.313-5.195-3.741c0.178-2.41,2.825-3.308,3.369-5.5
		c6.571-12.892,13.391-25.654,21.019-38.542c-5.394,0.522-9.528,2.779-13.984,3.9c-9.566,1.128-18.757,4.003-27.953,6.592
		c-2.876,0.81-5.298-0.616-7.843,0.318c-10.565,2.917-21.445,3.708-32.279,4.468c-6.857,0.48-13.712,1.594-20.629,1.043
		c-4.583,0.162-9.164-0.146-13.739-0.077c-5.476,0.289-10.862-1.574-17.187-0.864c9.616,11.77,13.632,25.388,17.061,39.256
		c0.878,2.514,2.027,4.957,2.047,7.701c-0.276,1.998-0.309,4.153-2.907,4.72c-0.707-0.361-1.279-0.917-1.568-1.627
		C195.98,269.162,193.3,260.391,191.74,251.294z"/>
	<path fill-rule="evenodd" clip-rule="evenodd" fill="#AB733C" d="M407.348,365.318c-2.527,0.486-5.105,0.793-7.571,1.493
		c-6.443,1.833-10.792,6.07-13.271,12.771c-2.594-2.571-3.863-5.577-6.151-7.804c-4.911-4.781-10.914-6.987-17.438-8.209
		c-3.808-3.376-7.106-7.252-10.689-10.851c-4.907-4.928-10.001-9.626-15.367-14.048c-3.808-3.136-3.662-4.557,0.736-6.41
		c5.697-2.401,11.337-4.889,16.646-8.082c1.059-0.638,2.167-1.228,3.486-0.766c4.126,3.861,6.006,9.212,9.065,13.785
		c1.115,1.665,1.014,3.491-0.784,4.917c-0.793,0.628-2.018,1.305-1.071,2.562c0.713,0.948,1.934,0.829,3.006,0.687
		c9.763-1.309,19.076-3.591,25.572-11.92c0.283-0.361,0.679-0.617,1.087-0.843c1.896-0.212,3.061,1.214,4.464,2.054
		c4.065,2.431,8.071,4.952,12.716,6.215c1.121,0.305,2.492,0.536,2.449,2.219c-2.005,1.803-3.038,4.051-3.85,6.653
		c-1.651,5.295-3.944,10.366-7.047,15.045c-0.568,0.142-0.071,0.403-0.019,0.353C404.687,363.821,406.049,364.137,407.348,365.318z"
		/>
	<path fill-rule="evenodd" clip-rule="evenodd" fill="#F5C7B9" d="M283.39,281.895c-7.618-0.876-14.645,1.033-21.337,4.521
		c-11.782,1.03-23.573,1.637-35.41,1.405c-5.618-0.111-10.971-1.394-16.329-2.816c-1.682-0.447-3.429-1.149-3.742-3.026
		c-0.374-2.244,1.812-2.535,3.212-3.299c9.331-5.088,19.129-9.205,28.823-13.899c-2.123-1.834-6.092-0.339-7.153-3.92
		c1.656-2.008,3.674-0.949,5.556-0.583c3.47,0.675,6.899,1.752,10.471,0.66c2.281,0.083,4.583,0.227,6.379-1.629
		c3.489,0.306,6.258-2.679,9.801-2.155c5.662,0.328,11.23-1.175,16.984-0.136c16.004,2.889,16.584,3.862,11.146,18.828
		C290.228,280.149,287.875,282.209,283.39,281.895z"/>
	<path fill-rule="evenodd" clip-rule="evenodd" fill="#794F26" d="M367.736,124.311c-1.793-0.021-3.192-1.025-4.662-1.857
		c-1.895-1.583-2.374-3.898-3.177-6.061c-4.543-12.25-10.311-23.792-19.734-33.119c-12.604-12.472-27.747-20.239-44.89-24.54
		c-17.043-4.275-34.338-6.14-51.811-5.32c-23.304,1.093-46.068,4.831-66.34,17.56c-10.487,6.585-19.743,14.347-24.037,26.591
		c-0.536,1.527-0.946,3.348-2.928,3.875c-1.394-0.458-1.884-1.589-2.165-2.88c-1.208-8.306,2.819-14.354,8.499-19.69
		c4.621-5.01,10.014-9.095,16.714-13.568c-10.318,0.36-18.491-3.78-27.092-6.282c-10.579-3.078-21.291-4.922-32.357-4.821
		c-5.027,0.046-9.726,1.504-14.561,2.406c-2.156,0.259-4.27,1.166-6.492,0.436c-0.441-0.35-0.542-0.779-0.3-1.289
		c13.627-7.293,27.948-6.146,42.357-3.364c6.972,1.346,13.789,3.331,20.482,5.72c4.656,1.663,9.371,2.941,14.346,3.438
		c6.9,0.689,13.136-0.273,19.647-3.258c26.475-12.138,54.479-13.607,82.973-10.43c19.365,2.159,37.831,7.204,54.712,17.254
		c2.669,0.758,4.987,2.186,7.233,3.759c5.734,4.006,10.689,8.841,15.145,14.212c6.191,7.354,10.314,15.935,14.543,24.457
		c0.804,1.655,1.373,3.402,2.04,5.113c0.729,2.321,1.575,4.603,2.248,6.94C368.597,121.216,369.109,122.841,367.736,124.311z"/>
	<path fill-rule="evenodd" clip-rule="evenodd" fill="#DAC9AA" d="M121.52,164.132c0.223,0.336,0.445,0.671,0.668,1.006
		c0.858,2.206,0.853,4.401-0.073,6.586c-3.46,2.837-4.426,7.252-6.659,10.854c-8.397,13.541-17.257,26.839-23.885,41.41
		c-8.146,17.908-11.843,36.228-4.881,55.432c5.079,14.01,14.035,25.129,26.008,33.863c22.237,16.222,47.294,25.894,74.027,31.54
		c11.596,2.45,23.35,3.729,35.22,3.755c2.021,0.006,4.236-0.314,4.074,2.823c-0.061,0.279-0.11,0.56-0.147,0.844
		c-1.757,1.705-4,1.317-6.127,1.419c-13.397,0.641-26.391-2.009-39.351-4.876c-2.713-0.601-5.406-1.25-8.18-1.451
		c-2.391-0.699-3.683-3.754-6.702-3.128c-6.608-1.384-12.734-4.191-19.042-6.459c-3.623-1.824-7.438-3.203-11.185-4.747
		c-0.107-1.72-1.525-2.197-2.74-2.798c-10.394-5.135-20.425-10.906-28.985-18.779c-12.667-11.649-21.344-25.589-24.115-42.958
		c-2.678-16.787,2.382-31.998,8.998-46.849c6.281-14.1,15.076-26.819,23.035-39.993C114.954,175.874,118.18,169.969,121.52,164.132z
		"/>
	<path fill-rule="evenodd" clip-rule="evenodd" fill="#F6E1C5" d="M299.179,259.683c5.767-12.786,12.137-25.258,19.452-37.236
		c6.538-4.646,14.213-4.598,21.656-4.75c6.135-0.125,12.225,1.207,18.04,3.365c1.67,0.62,3.666,0.978,4.005,3.281
		c-4.528-0.033-8.453-2.506-12.885-3.133c-3.394-0.479-6.736-0.37-10.098-0.408c-2.844-0.032-5.025,2.129-5.442,4.273
		c-0.889,4.574-4.248,8.175-4.5,12.89c-0.228,4.269-4.106,6.5-5.83,10.075c-3.692,7.664-6.909,15.588-11.771,22.779
		c-4.906,7.258-11.375,11.664-19.141,14.801c-2.093-0.438-3.978-1.3-5.579-2.738c3.795-2.608,5.199-6.696,6.521-10.777
		c0.998-3.08,2.33-6.025,3.372-9.086C297.214,261.577,297.758,260.34,299.179,259.683z"/>
	<path fill-rule="evenodd" clip-rule="evenodd" fill="#F8E8D1" d="M171.296,346.773c1.696-1.056,3.333-0.78,5.241-0.31
		c16.194,3.996,32.535,6.906,49.336,5.782c-0.848,6.202-1.749,12.397-2.52,18.61c-0.392,3.165-1.38,2.59-3.382,1.026
		c-7.769-6.066-16.273-7.879-25.235-2.921c-4.9,2.709-9.435,1.969-13.999-0.209c-7.924-3.778-16.09-2.948-24.321-1.646
		c-0.99-1.213-0.474-2.463,0.259-3.398c4.079-5.211,7.66-10.814,12.24-15.63C169.552,347.41,170.312,346.86,171.296,346.773z"/>
	<path fill-rule="evenodd" clip-rule="evenodd" fill="#F7E8D1" d="M304.711,340.258c0.283-0.004,0.565-0.009,0.849-0.019
		c6.646,0.706,12.73-1.871,18.923-3.507c3.836-1.012,6.844-0.59,9.799,1.967c4.65,4.021,9.581,7.731,13.771,12.258
		c1.163,1.255,3.059,2.384,1.903,4.664c-7.205,3.522-14.923,5.729-22.621,7.583c-7.892,1.902-15.784,3.971-23.821,5.258
		c-2.472,0.396-5.457,1.739-7.172-1.124c-1.516-2.53,0.815-4.561,1.889-6.682C300.969,354.039,303.922,347.491,304.711,340.258z"/>
	<path fill-rule="evenodd" clip-rule="evenodd" fill="#A86D37" d="M146.252,336.58c6.542,1.973,12.685,5.146,19.438,6.486
		c3.072,0.547,3.857,1.714,1.488,4.308c-5.925,6.491-10.551,13.939-15.35,21.256c-0.808,1.231-1.243,3.444-3.63,2.134
		c-3.506-3.824-8.217-4.779-13.035-5.483c-0.838-0.882-0.903-1.937-0.544-3.003c2.786-8.29,5.697-16.53,9.92-24.233
		C144.921,337.35,145.522,336.884,146.252,336.58z"/>
	<path fill-rule="evenodd" clip-rule="evenodd" fill="#ED9C87" d="M231.527,260.601c2.938,2.913,7.324,1.489,11.306,3.936
		c-12.504,5.171-24.124,11.025-35.81,16.76c0.687,1.889,2.138,2.113,3.667,2.561c13.264,3.891,26.741,3.076,40.223,1.896
		c3.662-0.32,7.374,0.312,11.015-0.732c0.68-0.196,0.228,0.887,0.124,1.395c-1.533,0.665-3.065,1.327-4.598,1.991
		c-2.924,1.616-6.236,1.729-9.386,1.922c-13.317,0.82-26.613,0.934-39.55-3.216c-1.786-0.572-3.482-1.173-4.673-2.698
		c-1.519-8.866,3.486-15.216,8.525-21.441c2.213-2.732,4.811-5.194,7.591-7.398c1.241-0.982,2.42-1.931,2.204-3.742
		c0.071-0.929,0.22-1.827,0.943-2.507c2.445,0.315,2.291,2.461,2.886,4.079c0.129,3.446,1.772,5.737,5.139,6.715
		C231.268,260.278,231.397,260.439,231.527,260.601z"/>
	<path fill-rule="evenodd" clip-rule="evenodd" fill="#DA9790" d="M414.13,342.981c-7.128-2.183-13.62-5.598-19.562-10.084
		c-2.149,0.42-2.829-1.147-3.563-2.641c-1.923-3.319-4.877-5.971-6.165-9.71c-2.097-6.092-0.348-8.519,5.953-8.128
		c11.251,0.697,11.282,0.704,13.813-10.285c0.556-2.418,1.122-4.816,2.422-6.938c1.744-2.841,4.383-3.822,7.566-3.036
		c3.044,0.753,3.99,3.19,4.146,5.969c0.146,2.613-0.033,5.246,0.106,7.861c0.243,4.59,3.028,5.969,6.787,3.264
		c1.989-1.43,3.628-3.338,5.53-4.903c2.94-2.418,6.171-3.844,9.524-0.903c3.36,2.948,2.35,6.244,0.33,9.559
		c-1.776,2.911-3.878,5.545-6.187,8.033c-0.984,1.061-1.928,2.306-1.07,3.69c0.749,1.207,2.225,0.66,3.417,0.554
		c0.453-0.04,0.887-0.268,1.34-0.348c3.599-0.626,7.482-1.144,9.416,2.736c1.994,4.002-0.354,7.258-3.493,9.557
		c-6.154,4.501-13.366,6.006-20.815,6.667c-2.547,0.228-5.272-0.787-7.612,1.016C415.064,344.581,414.455,343.919,414.13,342.981z"
		/>
	<path fill-rule="evenodd" clip-rule="evenodd" fill="#F5E2C8" d="M203.668,282.874c4.145,3.887,9.395,4.837,14.734,5.471
		c11.32,1.343,22.647,1.519,33.984,0.089c1.665-0.21,3.379-0.027,5.069-0.027c-1.236,1.222-2.474,2.443-3.711,3.665
		c-3.978,2.119-8.058,2.472-12.397,1.093c-3.809-1.212-7.645,0.604-11.743-0.168c-4.415-0.834-8.89-1.767-13.149-2.969
		c-7.065-1.992-14.617-1.402-21.417-4.898c-6.384-3.281-10.269-8.014-9.757-15.129c0.482-6.703,1.605-13.408,6.459-18.706
		c3.29,6.783,4.417,14.267,6.892,21.312c0.76,2.163,1.615,4.291,2.426,6.436C202.525,279.913,203.444,281.156,203.668,282.874z"/>
	<path fill-rule="evenodd" clip-rule="evenodd" fill="#775029" d="M371.516,172.574c1.177-2.218,1.796-4.759,3.766-6.518
		c4.325,11.507,10.886,21.999,14.962,33.647c11.572,33.072,11.107,65.209-6.704,96.186c-0.925,0.657-1.076,2.534-2.87,1.821
		c-1.118-0.057-2.036-0.341-1.987-1.732c-0.194-2.942,1.59-5.16,2.854-7.534c8.363-15.709,12.495-32.463,11.696-50.228
		c-0.845-18.754-6.242-36.333-15.151-52.823c-1.541-2.852-2.633-5.915-4.357-8.66C372.953,175.369,372.25,173.963,371.516,172.574z"
		/>
	<path fill-rule="evenodd" clip-rule="evenodd" fill="#DDC7A6" d="M380.669,297.711c0.957-0.608,1.913-1.215,2.87-1.823
		c-1.611,6.55-6.688,10.716-10.699,15.625c-2.274,2.783-5.911,4.425-6.926,8.258c-2.965,0.912-4.944,3.941-8.358,3.888
		c-6.422,3.64-12.882,7.233-19.858,9.695c-3.381,1.194-3.535,1.988-0.62,4.2c8.478,6.434,15.971,13.965,23.117,21.83
		c1.112,1.226,2.324,2.462,2.723,4.187c-1.75-0.076-3.501-0.15-5.251-0.225c-0.751-0.384-1.497-0.774-2.049-1.444
		c-1.562-2.476-4.618-3.782-5.405-6.868c-5.414-6.546-12.165-11.626-18.672-16.967c-1.371-1.126-2.824-1.268-4.689-0.742
		c-5.734,1.618-11.571,2.868-17.354,4.32c-1.687,0.423-3.376,1.187-3.937-1.405c0.27-2.972,2.868-3.022,4.798-3.475
		c15.898-3.739,31.391-8.609,45.574-16.875C365.66,314.222,374.377,307.281,380.669,297.711z"/>
	<path fill-rule="evenodd" clip-rule="evenodd" fill="#FCF5EA" d="M356.48,361.623c0.395,0.575,0.789,1.148,1.185,1.723
		c-3.653,1.12-7.396,1.602-11.183,2.155c-6.429,0.938-12.074,4.286-16.583,9.031c-3.152,3.319-6.521,5.222-11.25,4.726
		c-2.859-0.299-5.743-0.008-8.653,0.647c-5.403,1.213-12.887-2.459-15.755-7.062c-0.933-1.495-0.293-2.606,0.285-3.85
		c4.552,1.415,8.803,1.012,13.183-1.149c2.985-1.472,6.563,0.161,9.958-0.946c7.53-2.456,15.099-5.299,22.807-6.554
		C345.449,359.536,351.603,356.405,356.48,361.623z"/>
	<path fill-rule="evenodd" clip-rule="evenodd" fill="#794E25" d="M146.252,336.58c-3.782,8.253-7.405,16.572-10.257,25.202
		c-0.375,1.135-0.559,2.331-0.832,3.498c-4.887,0.427-9.812,0.653-15.116,3.301c3.575-13.077,9.265-24.387,15.238-35.577
		C139.611,332.143,142.66,335.193,146.252,336.58z"/>
	<path fill-rule="evenodd" clip-rule="evenodd" fill="#DA9891" d="M367.736,124.311c0.082-4.235-2.509-7.833-2.857-11.965
		c2.353-0.291,2.296,1.879,3.136,3.106c1.321,1.93,1.524,4.611,3.924,5.805c4.829-0.372,9.062-2.562,12.352-5.69
		c13.655-12.979,25.108-27.594,30.127-46.163c2.096-7.757,2.876-15.785-1.795-23.217c-1.16-1.846-2.579-3.442-4.124-4.949
		c-6.962-6.79-11.695-7.146-19.375-1.453c-2.713,1.526-4.355,4.206-6.644,6.195c-1.266,0.398-2.207-0.05-2.913-1.114
		c0.125-3.531,2.563-5.511,5.012-7.487c2.737-2.35,5.673-4.39,9.064-5.704c13.122-0.557,25.211,10.703,26.061,24.128
		c0.764,12.074-3.582,22.681-9.334,32.844c-7.66,13.538-17.457,25.333-29.61,35.096c-2.672,2.146,0.536,1.119,0.812,1.661
		C376.834,126.621,372.156,127.1,367.736,124.311z"/>
	<path fill-rule="evenodd" clip-rule="evenodd" fill="#774A23" d="M357.556,323.658c2.844-1.175,4.438-5.029,8.359-3.886
		c3.543,5.746,7.279,11.388,10.09,17.548c0.881,1.933,1.96,2.376,3.976,1.589c4.574-1.788,8.363-4.478,11.023-8.652
		c1.188,0.879,2.377,1.761,3.564,2.641c-1.634,4.075-4.936,6.37-8.582,8.491c-5.749,3.345-12.138,4.201-18.485,5.288
		c-1.938,0.331-3.953,0.013-4.727-1.981c-0.837-2.161,1.135-2.787,2.647-3.511c2.709-1.298,0.765-2.941,0.085-4.152
		C362.971,332.51,360.224,328.106,357.556,323.658z"/>
	<path fill-rule="evenodd" clip-rule="evenodd" fill="#DACAAC" d="M393.643,31.673c-2.842,2.118-5.685,4.235-8.526,6.354
		c-9.795,5.173-18.309,12.259-27.393,18.485c-7.644,5.239-15.621,9.732-24.242,13.099c-2.187-1.5-4.374-3-6.561-4.499
		c7.901-0.129,14.363-4.123,20.641-8.166c9.019-5.81,17.561-12.367,26.639-18.075C380.079,35.174,386.033,30.998,393.643,31.673z"/>
	<path fill-rule="evenodd" clip-rule="evenodd" fill="#EB9C87" d="M298.143,263.348c-1.91,5.071-3.893,10.117-5.697,15.226
		c-0.932,2.636-2.837,3.788-5.358,4.308c-1.232-0.327-2.465-0.657-3.697-0.986c1.703-1.602,4.944-0.726,5.928-3.064
		c1.959-4.65,3.579-9.456,5.117-14.269c0.552-1.723-1.185-2.349-2.411-2.888c-7.466-3.28-15.234-4.675-23.359-3.412
		c-1.959,0.305-3.893,1.113-5.67-0.465c-0.286-1.204,0.649-1.489,1.418-1.904c4.186-1.075,5.113-5.499,8.055-7.856
		c9.753,2.18,19.047,5.147,24.628,14.45C297.327,262.873,297.75,263.11,298.143,263.348z"/>
	<path fill-rule="evenodd" clip-rule="evenodd" fill="#FCF4E8" d="M356.48,361.623c-1.408,0.904-2.227-0.084-3.14-0.931
		c-1.299-1.203-2.832-1.341-4.199-0.295c-1.804,1.379-3.617,1.408-5.634,0.693c-0.699-0.248-1.818-0.612-2.191-0.286
		c-4.627,4.036-11.118,2.163-16.218,5.407c-3.222,2.051-7.845,2.657-11.805,2.556c-3.357-0.085-6.246,0.15-9.105,1.812
		c-3.618,2.104-6.753,0.85-9.662-1.585c0.456-3.126,0.815-6.293,3.704-8.338c-0.213,0.731-0.382,1.48-0.649,2.191
		c-0.522,1.389-1.849,2.742-0.541,4.257c1.21,1.401,2.724,0.708,4.274,0.438c16.631-2.887,32.802-7.544,48.896-12.51
		C352.644,356.904,354.899,358.942,356.48,361.623z"/>
	<path fill-rule="evenodd" clip-rule="evenodd" fill="#D99993" d="M92.404,55.752c0.062,0.324,0.123,0.647,0.184,0.971
		c0.404,2.43-1.664,2.896-3.071,3.928c-3.168,2.322-6.416,4.588-7.836,8.52c-0.12,0.882-0.264,1.757-0.458,2.624
		c-1.956,9.344,0.775,17.687,5.717,25.421c3.557,5.565,7.25,11.083,12.148,15.621c0.971,0.899,1.083,2.165,1.759,3.168
		c-0.007,0.929-0.013,1.858-0.02,2.788C89.694,109.6,81.1,98.554,77.291,84.458C74.045,72.448,79.759,62.121,92.404,55.752z"/>
	<path fill-rule="evenodd" clip-rule="evenodd" fill="#DDBF99" d="M148.199,370.764c4.058-2.567,5.112-7.35,7.929-10.869
		c3.526-4.405,6.233-9.506,10.372-13.409c2.213-2.087,0.516-2.539-0.809-3.419c2.832-0.223,5.113,0.39,5.605,3.707
		c-4.306,5.407-8.608,10.817-12.918,16.221c-0.975,1.222-1.778,2.516-1.961,4.112c-0.79,1.079-1.694,2.092-2.348,3.247
		C151.626,374.666,151.473,374.697,148.199,370.764z"/>
	<path fill-rule="evenodd" clip-rule="evenodd" fill="#754A26" d="M414.13,342.981c1.284,0.002,1.764,0.791,1.884,1.93
		c-2.151,7.114-4.593,14.105-8.665,20.407c-1.511-0.072-3.022-0.143-4.865-0.229c1.856-4.229,3.481-8.276,5.417-12.172
		c0.831-1.67,1.265-3.354,1.773-5.1C410.304,345.651,410.661,342.733,414.13,342.981z"/>
	<path fill-rule="evenodd" clip-rule="evenodd" fill="#D03125" d="M240.795,341.199c4.286-12.803,8.643-25.644,17.17-36.358
		c3.986-5.009,9.782-8.003,15.879-9.982c6.844-2.223,12.446,0.027,16.039,6.497c6.026,10.85,6.127,22.511,3.722,34.238
		c-3.151,15.358-10.345,28.965-19.174,41.771c-1.105,1.604-2.574,3.001-3.017,5.003c0.376,0.188,0.688,0.49,0.897,0.431
		c14.403-4.093,27.769,7.08,28.773,24.025c0.7,11.798-3.2,22.463-8.565,33.956c8.608-3.323,15.607-7.584,22.372-12.264
		c1.276-0.883,0.814-2.556,1.017-3.9c2.549-16.965,9.542-31.467,23.264-42.31c6.268-4.954,13.499-6.806,21.243-6.376
		c9.472,0.524,15.429,7.085,16.688,17.311c1.928,15.645-4.772,27.146-16.965,36.119c-5.389,3.967-11.303,6.955-17.583,9.164
		c-2.971,1.047-2.816,2.158-0.776,4.029c4.102,3.768,9.064,4.649,14.25,3.86c11.999-1.822,21.753-8.314,31.095-15.56
		c1.438-1.114,1.325-2.72,1.521-4.204c1.9-14.428,5.564-28.448,9.714-42.358c1.508-5.057,7.891-7.79,12.673-5.635
		c1.991,0.896,2.076,2.523,2.084,4.218c0.036,7.405,0.016,14.812,0.016,22.299c1.86,0.036,1.711-1.571,2.12-2.487
		c2.715-6.099,6.075-11.796,10.339-16.937c1.076-1.297,2.218-2.642,3.599-3.563c3.313-2.211,6.842-5.15,11.001-3.086
		c3.841,1.908,3.288,6.261,3.649,9.884c0.801,8.02-1.387,15.993-0.322,24.034c1.255,9.477,4.986,12.056,14.154,9.538
		c4.208-1.156,8.053-3.102,11.666-5.517c2.128-1.422,4.36-2.609,6.888-1.256c2.734,1.463,2.849,4.187,2.8,6.874
		c-0.059,3.212-0.867,6.258-3.477,8.262c-7.938,6.099-16.577,10.675-26.802,11.538c-8.422,0.711-14.186-3.028-17.908-10.409
		c-3.039-6.028-4.016-12.585-5.021-19.392c-2.062,0.742-2.146,2.604-2.68,4.023c-4.621,12.271-9.19,24.564-13.732,36.865
		c-1.29,3.495-2.851,6.844-5.077,9.831c-4.767,6.398-10.961,6.067-15.264-0.778c-1.489-2.367-2.116-5.087-2.981-8.188
		c-7.27,6.27-15.123,10.751-24.27,12.345c-17.442,3.041-32.662-0.117-42.68-16.407c-1.285-2.089-2.309-1.771-4.035-0.811
		c-16.529,9.188-34.592,13.936-52.955,17.408c-10.357,1.958-20.313-0.738-29.169-6.454c-2.833-1.829-4.708-1.587-7.406,0.071
		c-6.158,3.786-12.341,7.734-20.014,7.721c-6.935-0.013-10.912-2.869-12.754-9.741c-2.597-9.686-2.046-19.593-1.599-29.469
		c0.166-3.647,0.431-7.29,0.248-11.059c-4.493,6.67-7.39,14.054-10.176,21.456c-2.118,5.626-3.752,11.433-5.752,17.104
		c-2.682,7.61-5.604,10.213-10.884,10.016c-7.761-0.29-11.963-4.212-12.28-12.058c-0.458-11.325,1.575-22.441,3.366-33.564
		c0.266-1.656,0.516-3.314,0.28-5.186c-4.23,5.475-6.946,11.735-9.752,17.944c-4.563,10.096-8.073,20.743-14.883,29.684
		c-4.265,5.6-12.582,5.449-16.7-0.004c-1.612-2.136-1.92-4.816-3.281-7.43c-7.559,4.673-15.287,8.63-23.977,10.696
		c-18.052,4.295-33.119,1.697-42.191-20.825c-0.931-2.312-2.634-2.761-4.557-3.332c-5.026-1.491-10.122-2.798-15.042-4.586
		c-5.219-1.897-5.908-5.378-2.773-11.744c2.65-5.383,4.311-5.806,9.679-2.827c1.588,0.881,3.407,1.495,5.196,1.843
		c6.738,1.303,7.406,0.582,8.468-6.142c1.972-12.485,6.624-23.761,15.994-32.64c8.325-7.891,18.274-9.462,28.843-6.24
		c12.079,3.683,17.512,17.274,12.46,29.971c-4.243,10.66-12.876,17.09-22.27,22.675c-3.299,1.962-6.875,3.472-10.37,5.09
		c-3.8,1.761-4.202,3.981-0.984,6.855c3.557,3.176,7.909,3.184,12.264,2.579c6.354-0.882,11.957-3.862,17.761-6.386
		c8.943-3.885,14.325-9.306,15.199-20.017c0.986-12.071,4.388-23.945,7.747-35.673c1.797-6.271,9.342-9.487,15.246-6.564
		c2.679,1.325,3.396,3.818,3.483,6.584c0.19,6.068-0.972,12.001-2.085,17.899c-0.402,2.132-0.586,4.226-0.747,6.354
		c-0.629,1.43-0.588,3.008-0.15,4.351c0.38,1.169,0.732-0.479,1.251-0.384c4.734-7.806,9.252-15.756,14.278-23.37
		c3.446-5.222,8.22-9.158,14.55-10.633c5.955-1.39,8.794,0.683,9.27,6.76c0.522,6.671-0.64,13.157-2.502,19.531
		c-0.639,2.185-1.58,4.29-1.449,6.635c-0.604,0.85-0.407,1.809-0.061,2.601c0.131,0.299,0.649-0.418,0.99-0.675
		c5.882-9.132,11.772-18.261,17.644-27.4c2.052-3.194,4.723-5.67,8.178-7.275c6.913-3.211,12.986,0.284,13.411,7.867
		c0.46,8.229-1.385,16.252-2.487,24.339c-1.123,8.238-3.168,16.38-2.918,24.762c0.104,3.458-0.505,7.766,3.13,9.575
		c3.468,1.727,6.773-0.902,9.859-2.603c3.969-2.186,6.217-5.102,6.725-10.08c2.064-20.227,5.319-40.323,6.874-60.613
		c0.588-6.332,1.157-12.661,2.177-18.952C238.211,349.6,239.162,345.323,240.795,341.199z M253.166,450.494
		c8.344,0.689,15.349-1.783,19.987-8.936c5.811-8.958,8.3-18.856,6.46-29.507c-1.367-7.918-5.924-11.715-13.142-11.505
		c-6.27,0.183-10.349,3.802-12.944,9.021c-5.078,10.209-6.876,21.296-7.887,30.438C245.308,449.205,246.019,449.904,253.166,450.494
		z M265.898,355.014c4.347-8.87,8.388-17.861,10.728-27.504c0.949-3.915,1.596-7.886,0.271-11.862
		c-0.979-2.934-2.665-3.835-4.996-1.312c-1.344,1.455-2.529,3.105-3.537,4.813c-4.724,8.011-8.148,16.55-10.416,25.582
		c-3.259,12.98-7.226,25.801-8.444,39.246C255.775,374.683,261.025,364.954,265.898,355.014z M354.893,394.261
		c-2.799-1.046-5.293-0.132-7.119,1.962c-6.258,7.18-9.764,15.574-10.569,25.082c-0.183,2.161,0.646,3.045,2.92,2.914
		c9.37-0.532,19.712-11.011,19.829-20.214C360.006,399.862,357.699,395.307,354.893,394.261z M68.108,424.299
		c7.915-0.721,18.945-10.229,20.448-18.041c0.762-3.959,0.342-8.026-3.473-10.236c-3.652-2.113-6.837,0.18-9.562,2.566
		c-6.551,5.735-8.832,13.48-9.98,21.441C65.808,422.042,64.384,424.637,68.108,424.299z"/>
	<path fill-rule="evenodd" clip-rule="evenodd" fill="#F7E7CF" d="M176.852,229.055c-4.645,2.8-9.796,1.979-14.75,1.733
		c-2.559-0.126-5.751-0.546-3.312-5.109c2.133-3.992-1.389-5.414-4.285-7.823c-7.932-6.598-16.018-13.352-20.362-23.218
		c-0.247-0.56-0.588-1.078-0.886-1.615c0.79-0.728,1.719-0.677,2.577-0.277c11.238,5.227,23.389,4.419,35.273,5.304
		c2.614,0.194,5.212,0.276,7.724,1.074c1.691,0.382,3.076,1.373,4.338,2.47c6.345,5.514,12.691,11.007,20.256,14.873
		c1.147,0.586,2.471,1.368,2.309,3.089c-2.436,2.423-5.55,1.662-8.311,1.366c-8.717-0.935-17.512-1.361-26.086-3.412
		c-1.048-0.25-2.106-0.5-3.173-0.622c-2.037-0.232-5.015-1.697-5.739,0.879c-0.882,3.137,2.722,3.07,4.666,3.777
		C171.182,223.032,174.84,224.929,176.852,229.055z"/>
	<path fill-rule="evenodd" clip-rule="evenodd" fill="#E2BD90" d="M179.621,200.142c-11.154-0.868-22.308-1.727-33.46-2.607
		c-4.692-0.371-8.671-2.811-12.903-4.513c-7.294-5.227-10.418-12.635-11.142-21.298c-1.614-2.213,0.185-4.389,0.072-6.585
		c1.831,3.199,3.716,6.369,5.484,9.602c8.041,14.699,21.126,20.426,37.147,20.934c3.7,0.117,7.403,0.131,11.104,0.193
		C177.77,196.761,179.331,197.902,179.621,200.142z"/>
	<path fill-rule="evenodd" clip-rule="evenodd" fill="#D4BFA1" d="M176.852,229.055c-3.787-3.667-7.869-6.797-13.371-7.339
		c-2.561-0.252-3.51-2.025-3.214-4.184c0.34-2.483,2.242-2.99,4.53-2.515c9.898,2.053,19.876,3.591,29.956,4.403
		c3.609,0.291,7.269,1.203,10.792-0.509c1.648-1.264,2.879,0.208,4.274,0.638c1.507,0.876,3.454,1.406,3.069,3.806
		c-15.263,0.531-30.345-1.327-45.498-3.492c4.963,3.092,10.2,5.689,13.077,11.071C178.839,231.121,178.118,229.564,176.852,229.055z
		"/>
	<path fill-rule="evenodd" clip-rule="evenodd" fill="#AB753D" d="M374.179,175.392c6.024,10.825,11.436,21.854,15.111,33.806
		c3.279,10.667,5.162,21.444,5.223,32.482c0.101,18.46-4.484,35.736-14.462,51.433c-0.563,0.887-0.917,1.908-1.369,2.865
		c-1.897-2.228,0.187-4.051,0.711-5.958c2.812-10.236,5.887-20.339,6.287-31.14c0.583-15.701-5.33-25.975-23.349-34.539
		c-8.647-4.666-17.959-5.649-27.587-5.11c-5.54,0.31-10.8,1.861-16.114,3.215c-0.34-1.415,0.589-2.139,1.546-2.848
		c2.299-1.067,3.993-2.648,5.14-5.005c2.216-4.555,5.464-7.048,11.062-7.419c5.814-0.387,12.01-1.171,16.532-5.868
		c0.595-0.325,1.189-0.65,1.784-0.976c5.182-5.292,10.515-10.419,14.119-17.066C370.312,180.5,370.729,176.867,374.179,175.392z"/>
	<path fill-rule="evenodd" clip-rule="evenodd" fill="#A86C37" d="M149.948,101.216c3.203-6.584,5.665-13.513,11.016-18.949
		c13.171-13.38,29.374-20.956,47.285-25.394c17.758-4.401,35.891-5.806,54.024-4.563c16.329,1.12,32.632,3.429,47.981,9.852
		c15.164,6.346,28.465,15.332,38.142,28.761c6.842,9.495,11.686,20.136,14.679,31.53c-12.294-4.06-24.742-7.323-37.7-8.615
		c-18.346-1.83-36.63-1.337-54.881,0.836c-12.071,1.438-24.138,4.117-36.037-0.66c-6.181-2.481-12.532-4.32-19.023-5.684
		c-20.704-4.35-41.613-4.27-62.583-2.761c-1.528,0.11-3.068,0.053-4.603,0.074C148.057,103.878,148.872,102.497,149.948,101.216z"/>
	<path fill-rule="evenodd" clip-rule="evenodd" fill="#2A2A29" d="M355.712,191.118c-2.661,7.34-9.076,8.69-15.567,9.113
		c-12.62,0.821-25.295,0.287-37.697-2.032c-6.794-1.271-13.715-3.053-19.969-6.36c-3.768-1.992-5.378-5.829-7.053-9.45
		c-4.087-8.83-5.437-18.448-7.837-27.767c-1.647-6.389-3.441-12.731-7.33-18.288c-1.944-2.778-4.44-4.317-7.638-4.51
		c-3.845-0.23-7.717-0.136-11.574-0.032c-2.292,0.062-3.973,1.173-5.196,3.266c-2.259,3.864-4.175,7.814-5.651,12.081
		c-3.301,9.541-6.757,19.02-11.866,27.842c-4.364,7.537-10.102,12.249-19.047,13.575c-10.324,1.531-20.595,3.918-31.044,3.289
		c-8.492-0.511-17.049-1.22-24.829-5.783c-8.211-4.817-12.54-12.708-16.357-20.557c-4.389-9.021-7.803-18.732-9.538-28.635
		c-1.295-7.394-4.761-12.369-10.818-16.058c-4.332-2.637-1.443-6.246-0.809-9.107c0.523-2.358,3.351-1.228,5.214-0.758
		c8.383,2.116,16.808,1.38,25.173,0.151c6.402-0.94,12.772-1.845,19.259-1.542c0.896,2.996-1.518,2.671-3.118,3.017
		c-5.642,1.219-11.393,1.802-17.061,2.889c-3.112,0.597-5.944,2.558-9.301,1.921c-2.702-0.48-5.245-1.774-8.095-1.564
		c2.385,0.147,4.727,0.47,6.872,1.62c2.23,1.596,4.468,0.419,6.681-0.003c4.246-0.812,8.478-1.611,12.701,0.092
		c0.928,2.314-1.115,2.64-2.356,3.076c-3.992,1.405-7.22,4.131-10.931,6.009c-3.064,1.55-3.662,4.439-3.45,7.494
		c0.661,9.554,2.034,19.021,5.658,27.932c1.842,4.529,4.173,8.963,7.543,12.631c2.347,2.554,5.38,4.418,8.807,4.73
		c9.602,0.871,19.076,3.424,28.916,1.391c4.702-0.971,9.63,0.181,14.574-0.884c6.929-1.493,12.578-3.98,16.878-10.002
		c5.726-8.019,10.267-16.471,12.288-26.113c2.617-12.491,0.949-13.589-11.222-17.876c-14.132-4.978-29.062-6.548-44.088-6.902
		c-4.077-0.096-8.311-0.169-12.218-1.85c0.041-2.549,2.112-2.218,3.59-2.299c15.945-0.878,31.869-1.4,47.735,1.354
		c5.353,0.929,9.7,3.698,14.223,6.276c2.1,1.197,4.175,2.474,7.094,2.423c-0.724-4.515-2.808-7.41-7.024-8.35
		c-2.395-0.535-4.754-1.242-7.211-1.538c-2.082-0.25-3.938-0.937-3.747-3.628c6.395,0.696,12.827,1.622,18.655,4.335
		c11.75,5.468,23.885,5.783,36.325,3.745c5.424-0.888,10.838-1.837,16.371-1.604c0.031,2.398-1.932,2.524-3.482,2.824
		c-3.042,0.588-6.228,0.705-7.212,4.569c-1.042,4.094,1.257,6.321,4.344,8.176c-1.935,11.58,1.115,22.292,5.382,32.899
		c1.904,4.735,3.724,9.377,7.53,12.945c0.35,0.343,0.638,0.729,0.886,1.149c1.279,3.3,4.52,4.157,7.246,5.227
		c7.319,2.874,15.127,3.907,22.865,4.986c6.846,0.954,13.76,1.079,20.685,1.122c5.732,0.035,10.493-1.864,14.727-5.498
		c1.109-0.951,2.115-2.936,3.753-1.656c1.675,1.31,0.453,3.095-0.383,4.563C356.587,189.848,356.092,190.448,355.712,191.118z"/>
	<path fill-rule="evenodd" clip-rule="evenodd" fill="#F2B5A3" d="M149.948,101.216c0.118,1.741,0.006,3.394-1.705,4.429
		c-13.314,1.436-26.591,4.438-40.031,0.991c-1.517-0.389-3.036-0.268-4.513,0.271c3.483-2.933,1.71-6.041,0.521-9.326
		c-2.696-7.444-5.989-14.352-12.055-19.851c-3.488-3.161-8.305-3.22-11.705-6.188c0.011-0.905,0.021-1.81,0.032-2.715
		c2.036-2.368,4.908-3.26,7.731-3.908c16.671-3.828,32.129-0.843,46.34,8.645c7.447,4.972,11.061,11.812,10.181,20.871
		c-0.147,1.516-0.059,3.059-0.242,4.697c1.58-0.366,2.604-3.412,4.477-0.751C149.301,99.327,149.625,100.271,149.948,101.216z"/>
	<path fill-rule="evenodd" clip-rule="evenodd" fill="#985827" d="M317.54,206.676c-20.232,6.091-40.837,10.466-61.731,13.551
		c-11.742,1.733-23.549,2.628-35.395,3.126c-0.36-0.326-0.67-0.694-0.932-1.102c-0.58-3.356,1.976-3.53,4.042-3.556
		c6.941-0.087,13.798-0.618,20.696-1.598c8.658-1.229,17.401-1.929,25.954-3.819c9.909-2.19,20.124-2.991,30.167-6.629
		c-7.938-1.374-15.296-3.61-22.836-4.916c-5.449-0.944-8.182-4.11-10.013-8.98c-3.318-8.826-5.098-18.064-7.693-27.081
		c-1.664-5.778-3.255-11.56-6.192-16.877c-4.242-7.678-9.524-7.93-14.14-0.463c-5.575,9.019-8.411,19.137-11.398,29.186
		c-0.688,2.313-0.87,4.938-3.328,6.338c-1.687,0.167-0.856-2.182-2.37-2.317c-2.898,2.658-4.75,6.167-7.377,9.304
		c2.525,1.49,4.407-2.926,6.711-0.389c-1.265,4.42-4.85,6.879-9.605,6.601c-1.704-2.286-3.891-3.524-6.78-2.706
		c-5.057,1.431-10.228,2.177-15.414,2.909c-1.665,0.235-3.383,0.635-4.101,2.53c-0.214,0.409-0.519,0.727-0.922,0.952
		c-3.169-0.167-4.979-1.769-5.255-4.986c6.082-0.932,12.142-2.057,18.251-2.754c11.831-1.35,19.554-8.01,25.079-18.145
		c4.903-8.995,8.201-18.607,11.789-28.124c0.326-0.866,0.463-1.839,0.941-2.604c2.116-3.39,1.815-8.604,7.919-8.889
		c7.156-0.335,12.996,0.55,16.112,8.246c3.209,7.923,4.707,16.265,7.012,24.407c1.134,4.001,2.418,7.962,3.438,11.993
		c2.706,10.708,9.854,16.573,20.229,19.319c8.662,2.292,17.446,3.789,26.312,4.918C317.485,204.811,318.256,205.502,317.54,206.676z
		"/>
	<path fill-rule="evenodd" clip-rule="evenodd" fill="#212121" d="M287.409,179.746c-4.875-1.246-5.894-5.766-7.546-9.453
		c-2.217-4.945-4.362-10.07-5.434-15.343c-1.421-6.993-4.109-14.186-0.3-21.335c-0.111-1.445,1.022-1.671,1.999-2.056
		c13.7-4.803,27.994-5.429,42.284-5.648c6.577-0.1,13.158-1.725,19.758-0.09c5.66,1.403,11.365,2.619,17.093,3.689
		c4.466,1.944,9.066,3.451,12.677,7.175c4.396,4.535,7.123,9.229,4.646,15.871c2.09-7.968,7.729-11.396,15.017-12.931
		c1.808-0.381,3.596-1.068,5.187,0.516c-2.873,3.36-7.573,3.689-10.808,6.6c-1.837,1.653-3.482,3.154-4.632,5.447
		c-6.003,11.981-12.164,23.883-18.396,35.748c-0.67,1.276-2.143,2.131-3.243,3.181c0.005-2.1,1.749-3.877,1.176-6.704
		c-4.071,4.382-8.228,8.113-14.06,8.418c-5.532,0.29-11.144,0.56-16.623-0.044c-7.729-0.852-15.504-1.654-23.101-3.505
		c-4.723-1.15-9.302-2.675-13.593-4.979c-1.81-0.971-2.76-2.425-2.119-4.573c0.955-0.19,1.854,0.055,2.606,0.583
		c5.663,3.972,12.158,5.431,18.853,6.312c5.594,1.806,11.405,2.159,17.201,2.611c5.208,1.025,10.438,0.658,15.66,0.245
		c7.673-1.632,12.096-6.808,14.93-13.712c1.621-3.557,3.237-7.113,3.863-11.021c1.14-4.467,2.22-8.917,2.299-13.588
		c0.075-4.438-1.811-7.62-5.29-10.143c-5.644-4.09-12.244-5.601-18.83-7.171c-6.137-1.462-12.5-1.557-18.633-3.069
		c-5.898-0.844-11.794-0.743-17.686-0.023c-6.531,1.074-13.159,1.625-19.564,3.438c-6.605,1.868-8.065,4.088-7.031,10.724
		c1.093,7.021,2.548,13.951,5.42,20.5c0.909,3.422,2.859,6.329,4.582,9.359C286.634,176.292,288.125,177.679,287.409,179.746z"/>
	<path fill-rule="evenodd" clip-rule="evenodd" fill="#2D2D2D" d="M304.709,215.165c5.014-1.74,10.026-3.479,15.518-5.385
		c-1.558,5.42-4.718,9.53-7.123,14.002c-4.934,9.177-9.938,18.316-14.912,27.471c-8.259,1.119-14.619-2.573-19.794-8.404
		c-3.095-3.489-2.429-9.212,1.321-13.014C286.708,222.747,294.971,217.653,304.709,215.165z"/>
	<path fill-rule="evenodd" clip-rule="evenodd" fill="#2D2D2D" d="M200.936,267.074c-1.385-4.646-2.837-9.272-4.143-13.941
		c-2.787-9.965-8.061-18.634-14.754-27.325c6.871,0.519,12.881,0.972,18.89,1.426c7.246,0.491,12.718,3.986,16.45,10.092
		c2.874,4.701,2.769,9.509,0.175,14.457c-2.986,5.698-7.779,9.808-12.009,14.414C204.357,267.49,202.715,268.057,200.936,267.074z"
		/>
	<path fill-rule="evenodd" clip-rule="evenodd" fill="#F5C7B9" d="M80.46,71.544c10.343,1.42,16.732,7.95,21.166,16.742
		c1.791,3.551,2.789,7.493,4.442,11.124c1.539,3.378,2.665,6.33-2.369,7.499c-1.843,2.753-2.328,5.931-2.851,9.097
		c-9.514-8.749-17.099-18.844-20.704-31.406C78.937,80.394,78.679,75.853,80.46,71.544z"/>
	<path fill-rule="evenodd" clip-rule="evenodd" fill="#363636" d="M144.416,117.885c-5.295-0.044-10.583-0.262-15.711,1.625
		c-1.741,0.641-3.661,0.482-4.68-1.616c0.326-0.823,1.165-1.163,1.695-1.794c4.427,1.203,8.06-1.893,12.269-2.387
		c4.938-0.581,9.95-1.44,14.91-2.291c1.286-0.22,2.464-0.235,2.64-1.866c2.357-0.726,4.755-0.953,7.231-0.95
		c14.515,0.019,29.045-0.384,43.458,1.899c1.037,0.165,2.034,0.59,3.049,0.894c2.105,4.434,6.674,2.412,9.973,3.463
		c4.997,1.591,8.933,4.391,9.72,9.524c0.279,1.815-0.44,3.146-2.596,2.403c-1.834-0.632-3.666-1.371-5.349-2.327
		c-6.159-3.499-12.021-6.697-19.667-7.318c-8.312-0.675-16.645-2.47-24.995-1.885c-6.586,0.461-13.151,0.669-19.735,0.822
		c-0.682,0.016-1.351,0.563-2.026,0.864C151.358,118.922,148.036,120.025,144.416,117.885z"/>
	<path fill-rule="evenodd" clip-rule="evenodd" fill="#3A3A39" d="M275.97,132.678c-0.757,0.029-1.439,0.207-1.84,0.937
		c-5.806-1.628-6.421-2.46-5.505-8.82c0.567-3.936,3.604-4.935,7.036-5.044c1.906-0.061,3.667-0.299,4.965-1.875
		c8.309-1.708,16.825-1.316,25.169-1.477c9.837-0.189,19.82,0.776,29.599,2.813c4.643,0.967,9.284,1.864,13.798,3.331
		c2.437,1.495,5.384,2.055,7.523,4.085c0.785,0.746,1.511,1.617,1.074,2.774c-0.507,1.345-1.702,0.917-2.727,0.837
		c-10.492-2.988-21.001-5.886-32.066-5.47c-9.375,0.353-18.771-0.694-28.142,0.913C288.062,126.848,281.868,129.277,275.97,132.678z
		"/>
	<path fill-rule="evenodd" clip-rule="evenodd" fill="#2C2B2C" d="M355.684,129.926c2.462-0.51,1.648-1.454,0.388-2.574
		c-2.109-1.874-5.221-2.302-6.88-4.809c4.643,0.396,9.253,1.826,13.028,4.054c7.883,4.653,15.876,3.507,24.004,2.197
		c7.265-1.171,7.479-1.188,7.454,6.112c-0.005,1.759,0.675,3.712-0.889,5.236c-9.028,0.459-16.241,3.631-19.375,12.932
		c-0.312,0.929-0.265,2.532-1.794,2.065c-1.464-0.448-0.605-1.71-0.414-2.732c1.858-9.965-0.934-15.018-10.651-19.11
		c-1.69-0.712-2.869-2.397-4.871-2.445c-0.314-0.205-0.419-0.411-0.314-0.617C355.473,130.029,355.578,129.926,355.684,129.926z"/>
	<path fill-rule="evenodd" clip-rule="evenodd" fill="#191816" d="M304.709,215.165c-8.031,4.301-16.556,7.826-23.162,14.398
		c-5.727,5.696-5.35,10.691,0.985,15.807c4.586,3.705,10.157,4.678,15.66,5.884c0.106,2.588-2.3,3.179-3.66,4.601
		c-2.55-0.139-21.596-9.045-23.112-10.802c-0.712-2.853-0.487-5.767-0.368-8.636c0.211-5.061-0.425-9.998-1.558-14.899
		c0.234-0.193,0.612-0.596,0.683-0.548c4.069,2.758,7.399-0.936,11.078-1.189C289.295,219.223,296.517,214.743,304.709,215.165z"/>
	<path fill-rule="evenodd" clip-rule="evenodd" fill="#E0CA9B" d="M269.494,221.517c2.052-0.108,1.886,1.375,2.076,2.743
		c0.998,7.116,0.854,14.271,0.806,21.423c0.53,0.948,0.729,1.886-0.07,2.801c-1.375,3.783-3.236,7.131-7.476,8.353
		c-0.366-1.194,0.199-2.172,0.951-2.921c6.695-6.675,3.944-14.946,3.864-22.749c-0.02-1.877-1.386-2.682-3.147-2.621
		c-13.402,0.466-26.669,1.743-39.432,6.311c-3.418,1.224-4.263,4.131-5.378,6.975c-0.537,0.458-1.27,0.522-1.515-0.081
		c-1.903-4.67-4.407-9.178-4.229-14.459c12.432-0.703,24.895-1.013,37.246-2.792C258.661,223.712,264.217,223.369,269.494,221.517z"
		/>
	<path fill-rule="evenodd" clip-rule="evenodd" fill="#1D1714" d="M215.945,227.292c2.663,4.67,3.035,10.147,5.271,14.967
		c2.097,2.045,2.744,4.488,2.012,7.312c-0.082,0.801-0.164,1.602-0.246,2.402c-0.279,0.724-0.628,1.428-1.257,1.89
		c-7.167,5.248-12.703,11.894-16.947,19.662c-0.375,0.686-0.971,1.173-1.809,1.248c-0.678-2.565-1.356-5.132-2.034-7.698
		c5.946-1.253,7.979-7.065,12.051-10.508c1.758-1.486,2.815-3.979,3.782-6.192c3.028-6.931,1.249-12.477-4.663-17.306
		c-3.386-2.767-7.033-4.688-11.176-5.834C205.935,227.253,210.94,227.272,215.945,227.292z"/>
	<path fill-rule="evenodd" clip-rule="evenodd" fill="#905930" d="M352.91,201.307c-0.379,4.119-4.111,4.645-6.768,5.244
		c-4.271,0.963-8.496,2.381-13.065,2.255c-4.321-0.12-5.411,4.092-6.951,7.009c-1.406,2.663-2.835,4.274-5.949,3.785
		c2.02-4.703,5.269-8.614,8.132-12.783c1.002-1.459,2.169-1.86,3.826-1.958C339.184,204.441,346.211,203.811,352.91,201.307z"/>
	<path fill-rule="evenodd" clip-rule="evenodd" fill="#D2A67F" d="M179.628,195.754c1.472,2.011,2.929,4.04,5.55,4.692
		c5.686,3.237,10.428,7.802,15.956,11.296c3.087,1.951,6.583,3.217,9.368,5.651c1.485,1.776,0.657,2.729-1.187,3.318
		c-1.335-0.435-2.125-2.016-3.771-1.801c-9.833-4.608-17.772-11.833-25.923-18.766c-1.233-1.427-2.466-2.852-3.699-4.276
		C177.158,195.83,178.393,195.792,179.628,195.754z"/>
	<path fill-rule="evenodd" clip-rule="evenodd" fill="#966035" d="M374.179,175.392c-3.561,7.749-7.854,15.018-14.088,20.954
		c-1.615,1.538-2.724,3.848-5.396,3.986c6.841-8.505,11.604-18.268,16.82-27.758C373.323,172.644,373.585,174.175,374.179,175.392z"
		/>
	<path fill-rule="evenodd" clip-rule="evenodd" fill="#D2796F" d="M202.97,274.772c4.813-9.231,10.819-17.415,20.013-22.8
		c1.45,2.106-0.197,2.896-1.566,3.96c-5.751,4.467-10.667,9.712-14.114,16.173c-1.493,2.798-3.239,5.612-2.294,9.104
		c0.236,0.875-0.686,1.268-1.34,1.664c-1.63-0.761-2.047-2.346-2.61-3.832C202.763,278.098,202.704,276.362,202.97,274.772z"/>
	<path fill-rule="evenodd" clip-rule="evenodd" fill="#D1786E" d="M272.306,248.483c0.024-0.934,0.047-1.868,0.07-2.802
		c7.758,2.581,15.254,5.731,22.156,10.173c1.41,1.444,2.365,3.44,4.646,3.828c-0.346,1.222-0.69,2.443-1.036,3.665
		c-0.789,0.24-2.073,1.312-2.307,0.104c-1.335-6.917-7.787-8.046-12.454-10.935C280.111,250.494,276.027,249.781,272.306,248.483z"
		/>
	<path fill-rule="evenodd" clip-rule="evenodd" fill="#B58861" d="M209.315,220.711c0.499-0.835,2.004-1.357,0.842-2.709
		c4.467-0.883,7.096,2.355,10.191,4.548c0.031,0.267,0.052,0.535,0.064,0.804c-2.507,0-5.016,0-7.524,0.001
		C212.102,221.927,211.048,220.86,209.315,220.711z"/>
	<path fill-rule="evenodd" clip-rule="evenodd" fill="#543627" d="M317.54,206.676c-0.277-0.851-0.554-1.703-0.831-2.554
		c2.108,0,4.217,0,7.548,0C321.634,206.016,319.66,206.512,317.54,206.676z"/>
	<path fill-rule="evenodd" clip-rule="evenodd" fill="#FBF3DC" d="M223.229,249.571c-0.67-2.438-1.342-4.875-2.012-7.312
		c0.186-6.175,1.723-8.264,9.296-10.166c12.187-3.062,24.576-4.974,37.204-4.897c2.021,0.013,2.968,0.083,3.216,2.878
		c0.463,5.23,0.069,10.438,0.412,15.636c0.345,5.222-3.933,7.66-6.514,11.125c-0.611,0.32-1.223,0.641-1.836,0.961
		c-3.204,0.094-5.569,4.168-9.262,1.954c-2.457-0.215-2.579-2.321-3.106-3.988c-1.925-6.096-3.97-12.15-5.336-16.563
		c1.514,3.802,2.776,9.507,3.833,15.242c0.433,2.349,0.921,4.925-0.955,7.062c-2.858,2.795-6.034,0.757-9.032,0.473
		c-2.551-0.24-4.942-1.6-7.609-1.375c0,0-0.041-0.029-0.041-0.029c-3.521-0.798-5.618-2.972-6.292-6.518
		C224.53,252.562,224.542,250.777,223.229,249.571z"/>
	<path fill-rule="evenodd" clip-rule="evenodd" fill="#E8D094" d="M248.168,261.503c0.564-9.782-3.4-18.792-5.256-28.163
		c0.389-0.121,0.778-0.241,1.168-0.361c1.732,4.929,3.304,9.922,5.247,14.767c1.59,3.962,1.874,8.399,4.405,12.005
		C252.888,263.541,250.53,262.529,248.168,261.503z"/>
	<path fill-rule="evenodd" clip-rule="evenodd" fill="#F3BAAA" d="M382.461,45.598c0.866-3.053,3.342-4.682,5.686-6.428
		c2.409,1.113,4.439,2.799,6.375,4.539c6.482,5.831,7.472,13.903,3.449,22.293c-4.753,9.91-11.792,18.369-17.107,27.929
		c-4.632,8.33-8.535,16.72-8.667,26.444c-0.011,0.779-0.171,1.528-0.747,2.119c-4.053-2.177-3.514-7.327-6.57-10.149
		c-0.618-1.522-1.235-3.044-1.854-4.566c-3.821-7.857-4.986-16.028-2.977-24.599c1.572-6.701,5.202-12.46,8.707-18.184
		c3.357-5.484,7.257-10.647,10.441-16.257C379.994,47.334,381.147,46.411,382.461,45.598z"/>
	<path fill-rule="evenodd" clip-rule="evenodd" fill="#AB743E" d="M98.934,55.611c12.642-4.372,25.348-2.822,38.021-0.27
		c6.604,1.33,13.031,3.313,19.319,5.806c6,2.379,12.365,3.134,20.179,3.115c-7.183,5.491-13.995,9.557-19.122,15.573
		c-11.117-3.499-20.757-10.038-31.067-15.189c-7.799-3.896-15.936-6.473-24.527-7.726C100.67,56.764,99.569,56.688,98.934,55.611z"
		/>
	<path fill-rule="evenodd" clip-rule="evenodd" fill="#EA8F7A" d="M98.934,55.611c12.966,0.321,24.271,5.732,35.299,11.777
		c6.998,3.836,13.884,7.858,21.408,10.601c0.987,0.359,1.62,0.777,1.69,1.847c-5.41,5-9.216,10.722-8.352,18.547
		c-3.781-1.153-2.928,3.749-5.983,4.217c0.171-2.465,0.23-4.916,0.529-7.338c1.353-10.983-4.112-17.919-13.211-22.93
		c-8.031-4.422-16.56-7.816-25.642-7.9c-8.16-0.075-16.558,0.559-24.18,4.397c1.671-4.258,5.051-6.979,8.762-9.233
		c1.333-0.81,2.536-1.542,3.333-2.872C94.703,56.353,96.819,55.982,98.934,55.611z"/>
	<path fill-rule="evenodd" clip-rule="evenodd" fill="#FDF4EA" d="M333.481,69.611c-0.037-1.995,1.804-1.995,2.916-2.438
		c15.05-5.99,27.114-16.678,40.394-25.456c2.53-1.672,5.021-3.667,8.327-3.689c-1.844,2.184-3.686,4.369-5.526,6.554
		c0.051,1.006-0.519,1.749-1.104,2.456c-9.106,10.998-17.133,22.837-26.298,33.787c-0.997,1.191-1.619,3.149-3.837,2.697
		C343.683,78.578,338.953,73.698,333.481,69.611z"/>
	<path fill-rule="evenodd" clip-rule="evenodd" fill="#E89380" d="M348.353,83.522c8.95-9.479,15.79-20.614,24.052-30.631
		c2.33-2.824,4.279-5.984,7.188-8.308c0.956,0.338,1.912,0.677,2.869,1.016c-5.424,10.44-13.073,19.507-18.298,30.105
		c-4.386,8.9-4.786,17.839-2.193,27.178c0.444,1.602,1.43,3.112,1.056,4.898C358.566,99.432,354.386,90.917,348.353,83.522z"/>
	<path fill-rule="evenodd" clip-rule="evenodd" fill="#F5C7B9" d="M225.194,254.054c1.325,2.918,3.579,4.939,6.292,6.518
		C226.804,260.894,225.3,258.147,225.194,254.054z"/>
	<path fill-rule="evenodd" clip-rule="evenodd" fill="#F6C6B7" d="M415.953,302.93c0.007,1.544-0.083,3.094,0.027,4.628
		c0.176,2.438,1.039,4.854,3.47,5.533c2.619,0.729,5.539,1.869,7.897-1.253c1.655-2.193,3.783-4.079,5.904-5.858
		c1.483-1.245,3.264-2.717,5.328-0.916c1.941,1.694,1.867,3.848,0.719,5.888c-1.052,1.864-2.384,3.576-3.648,5.313
		c-0.449,0.617-1.195,1.035-1.582,1.68c-1.683,2.787-5.636,5.35-3.666,8.769c1.886,3.275,5.774,1.191,8.896,0.782
		c2.318-0.305,5.001-1.12,6.441,1.976c1.457,3.132-1.318,4.333-2.883,5.502c-7.55,5.644-16.496,7.357-25.425,5.92
		c-11.597-1.869-21.018-8.245-28.255-17.616c-0.468-0.604-0.965-1.258-1.184-1.97c-0.601-1.958-2.579-3.922-0.964-5.984
		c1.641-2.095,3.792-0.192,5.579,0.153c4.485,0.865,8.939,2.089,12.091-2.573c1.582-2.339,1.452-5.252,1.942-7.943
		c0.551-3.012,0.763-6.145,2.823-8.646c1.084-1.312,2.264-2.78,4.237-2.159c1.942,0.611,2.191,2.396,2.236,4.146
		C415.979,299.843,415.947,301.387,415.953,302.93z"/>
	<path fill-rule="evenodd" clip-rule="evenodd" fill="#F5C7B8" d="M371.449,122.495c-1.352-9.996,2.675-18.514,7.108-27.042
		c5.317-10.23,12.883-19.026,18.013-29.401c4.569-9.24,3.324-16.656-4.775-22.991c-1.352-1.058-3.405-1.702-3.648-3.892
		c8.905-7.238,18.388-4.816,25.204,5.726c4.524,6.995,4.346,14.463,2.945,21.785c-2.814,14.717-10.938,26.892-20.354,38.228
		c-4.606,5.545-8.932,11.484-15.664,14.7C377.505,120.933,374.923,123.189,371.449,122.495z"/>
	<path fill-rule="evenodd" clip-rule="evenodd" fill="#1F1F1F" d="M144.416,117.885c3.395-0.312,6.79-0.626,10.184-0.939
		c19.435,0.761,38.817,2.086,57.564,7.723c3.71,1.116,7.182,3.326,10.322,5.885c3.487,2.843,2.159,6.876,1.677,9.775
		c-2.257,13.591-8.386,25.494-17.824,35.619c-1.067,1.145-2.302,1.879-3.832,2.409c-6.781,2.35-13.55,4.591-20.892,3.464
		c-3.282-0.504-6.395,0.683-9.594,0.989c-7.788,0.747-15.251-1.533-22.871-2.228c-6.343-0.579-10.515-5.279-13.509-10.783
		c-5.463-10.04-8.675-20.694-8.888-32.191c-0.02-1.046-0.54-2.074-0.714-3.128c-0.674-4.087,1.767-7.224,5.205-9.446
		C135.483,122.296,140.075,120.351,144.416,117.885z"/>
	<path fill-rule="evenodd" clip-rule="evenodd" fill="#AAAFAC" d="M125.719,116.1c0.181,1.302-0.765,1.541-1.695,1.794
		c-3.261-1.029-6.967-0.42-10.842-3.143C118.134,113.7,121.878,115.523,125.719,116.1z"/>
	<path fill-rule="evenodd" clip-rule="evenodd" fill="#A66A34" d="M220.348,222.55c-3.397-1.516-6.793-3.032-10.19-4.548
		c-9.159-4.668-17.888-9.948-24.979-17.557c0,0.001-0.008-0.216-0.008-0.216c3.121-2.184,6.67-1.638,10.157-1.667
		c5.638-0.046,11.143-1.353,16.728-1.926c4.288-0.446,7.289-2.73,9.265-6.481c0.17-2.486,1.205-4.602,2.782-6.484
		c3.276-4.314,3.66-9.72,5.224-14.628c2.376-7.454,5.265-14.601,9.064-21.418c1.891-3.395,4.542-6.545,8.369-6.303
		c3.967,0.25,6.367,3.641,8.148,7.327c5.119,10.589,7.493,21.943,10.134,33.283c1.229,5.283,3.779,10.267,5.85,15.338
		c0.545,1.334,1.849,1.989,3.293,2.296c8.364,1.783,16.566,4.307,25.075,5.425c0.904,0.119,1.819,0.268,2.686,0.539
		c0.717,0.224,1.56,0.595,1.453,1.521c-0.103,0.898-0.86,0.893-1.684,1.062c-9.985,2.054-19.927,4.327-29.925,6.318
		c-6.127,1.221-12.36,1.856-18.546,2.731c-10.343,1.463-20.631,3.024-31.119,2.695C220.382,219.803,219.53,220.722,220.348,222.55z"
		/>
	<path fill-rule="evenodd" clip-rule="evenodd" fill="#995923" d="M212.056,196.637c-2.226,2.251-5.335,2.303-8.056,2.6
		c-6.238,0.679-12.548,0.705-18.83,0.994c-1.167-1.951-0.67-3.138,1.597-3.566c6.526-1.232,13.026-2.639,19.588-3.645
		C208.926,192.626,212.248,192.166,212.056,196.637z"/>
	<path fill-rule="evenodd" clip-rule="evenodd" fill="#995923" d="M224.103,183.671c-0.01,2.555-1.084,4.654-2.782,6.484
		c-2.105-0.088-2.885,2.192-4.662,2.621c-1.013,0.244-2.15,0.435-3.064-0.327c-0.7-0.583-0.628-1.455-0.139-2.054
		c2.84-3.475,5.716-6.923,8.667-10.304c0.437-0.5,1.331-0.602,2.049-0.902C225.286,180.855,223.623,182.234,224.103,183.671z"/>
	<path fill-rule="evenodd" clip-rule="evenodd" fill="#FEFEFE" d="M287.409,179.746c-1.767-4.811-6.157-8.325-6.772-13.705
		c-1.923-6.503-3.528-13.009-3.26-19.927c0.226-5.794,2.698-9.522,8.038-11.727c4.086-1.688,8.368-2.169,12.64-2.508
		c16.403-1.3,32.559-0.676,48.301,5.159c10.066,3.731,18.236,13.48,15.37,25.598c-0.208,0.88,0.063,1.853-0.337,2.729
		c-0.466,3.917-1.967,7.47-3.825,10.897c-5.141,8.608-13.333,11.353-22.729,12.54c-8.953,1.13-17.6-0.656-26.366-1.454
		c-7.884-0.164-14.8-3.008-21.076-7.619l-0.177,0.23L287.409,179.746z"/>
	<path fill-rule="evenodd" clip-rule="evenodd" fill="#CED6D3" d="M361.389,165.366c-0.567-3.804,0.338-7.661-0.648-11.48
		c-2.284-8.846-8.466-13.549-16.67-16.303c-15.285-5.13-30.927-5.904-46.833-4.166c-4.138,0.452-8.169,0.875-12.099,2.5
		c-4.651,1.921-6.474,5.177-6.448,10.036c0.026,5.089,0.246,10.108,1.573,15.063c0.428,1.594,0.266,3.346,0.373,5.026
		c-3.39-5.213-4.157-11.279-5.206-17.167c-0.395-2.22-1.313-4.289-1.397-6.656c-0.165-4.747,1.836-7.18,6.292-8.524
		c7.083-2.137,14.367-2.891,21.63-3.881c6.167-0.548,12.335-0.556,18.502,0.003c10.574,1.212,21.088,2.657,31.153,6.411
		c4.509,1.681,7.916,4.643,10.982,8.18c1.076,1.242,1.541,2.601,1.517,4.222C364.026,154.344,363.304,159.951,361.389,165.366z"/>
	<path fill-rule="evenodd" clip-rule="evenodd" fill="#2A2A29" d="M355.684,129.926c0,0.309,0,0.617,0,0.925
		c-8.002-0.978-15.638-4.841-23.722-4.25c-10.965,0.801-21.988-0.052-32.933,1.824c-5.506,0.944-11.15,1.195-16.688,2.298
		c-2.236,0.446-3.809,2.828-6.371,1.955c3.143-3.851,7.582-6.188,12.059-7.059c16.104-3.132,32.321-3.054,48.631-0.807
		C343.317,125.731,349.422,127.944,355.684,129.926z"/>
	<path fill-rule="evenodd" clip-rule="evenodd" fill="#CFD4D2" d="M308.468,187.349c4.846-1.48,9.694,0.032,14.475,0.321
		c12.485,0.755,24.164-0.203,33.137-10.345c0.393-0.444,0.984-0.711,1.484-1.062c-2.735,7.041-7.165,12.291-14.876,14.07
		c-5.547,0.42-11.094,0.486-16.639-0.027C320.131,189.662,314.042,190.032,308.468,187.349z"/>
	<path fill-rule="evenodd" clip-rule="evenodd" fill="#2A2A29" d="M320.457,129.815c-6.168-0.001-12.335-0.002-18.502-0.003
		C308.122,128.469,314.29,128.467,320.457,129.815z"/>
	<path fill-rule="evenodd" clip-rule="evenodd" fill="#2A2A29" d="M326.049,190.306c5.546,0.009,11.093,0.018,16.639,0.027
		C337.14,191.596,331.593,191.602,326.049,190.306z"/>
	<path fill-rule="evenodd" clip-rule="evenodd" fill="#B1B6B4" d="M368.311,133.337c3.771-1.123,7.568-1.049,11.392,0.206
		C375.95,134.585,372.179,135.059,368.311,133.337z"/>
	<path fill-rule="evenodd" clip-rule="evenodd" fill="#FEFEFE" d="M135.853,162.469c-1.072-2.005-1.598-4.158-1.747-6.415
		c-0.449-6.256-1.439-12.529,1.515-18.539c3.914-7.961,10.932-11.864,19.049-13.157c17.682-2.815,35.356-2.187,52.565,3.182
		c12.319,3.843,14.51,8.312,11.327,20.824c-0.493,1.938-1.234,3.786-1.86,5.675c-2.569,6.911-6.329,13.113-11.12,18.706
		c-4.908,5.729-12.045,5.43-18.538,6.876c-8.439,0.232-16.868,0.098-25.234-1.143C150.888,176.859,141.327,172.957,135.853,162.469z
		"/>
	<path fill-rule="evenodd" clip-rule="evenodd" fill="#D0D7D4" d="M216.701,154.039c0.062-4.769,2.001-9.249,1.952-14.09
		c-0.035-3.507-1.316-5.619-4.162-7.552c-6.875-4.67-14.765-5.834-22.632-7.079c-9.162-1.45-18.422-1.063-27.647-0.915
		c-7.813,0.126-15.278,1.89-21.688,6.568c-4.23,3.087-6.864,7.374-7.373,12.731c-0.391,4.113-0.699,8.235-1.045,12.352
		c-1.966-7.073-2.3-14.353-1.295-21.498c0.953-6.768,7.006-9.53,12.537-10.803c24.043-5.533,47.69-3.386,70.634,5.61
		c6.314,2.476,7.158,5.096,5.485,12.009C220.396,145.801,219.427,150.244,216.701,154.039z"/>
	<path fill-rule="evenodd" clip-rule="evenodd" fill="#CED6D3" d="M135.853,162.469c3.782,3.02,6.2,7.452,10.667,9.82
		c7.338,3.888,15.207,5.478,23.363,5.799c5.755,0.228,11.486,0.5,17.161,1.534c-1.24,0.131-2.479,0.261-3.719,0.392
		c-7.408,0.66-14.815,0.631-22.225,0.022c-2.7-1.143-5.635-0.482-8.434-0.837C142.418,177.897,138.228,171.273,135.853,162.469z"/>
	<path fill-rule="evenodd" clip-rule="evenodd" fill="#2A2A29" d="M161.099,180.035c7.409-0.007,14.817-0.015,22.225-0.022
		C175.917,181.494,168.509,181.47,161.099,180.035z"/>
	<path fill-rule="evenodd" clip-rule="evenodd" fill="#ED8D7F" d="M243.378,175.387c8.987-0.034,12.129,1.742,13.602,7.324
		c0.365,1.384,0.757,2.761-0.34,3.927c-1.214,1.289-2.268,0.039-3.3-0.437c-3.608-1.664-5.521,0.267-6.882,3.237
		c-0.448,0.977-0.581,2.296-1.957,2.137c-1.243-0.144-0.806-1.433-1.012-2.262c-1.188-4.758-3.3-5.721-7.562-3.077
		c-2.171,1.347-3.05,0.829-3.497-1.421c-0.811-4.084,1.832-7.956,5.952-8.716C240.198,175.766,241.963,175.058,243.378,175.387z"/>
	<path fill-rule="evenodd" clip-rule="evenodd" fill="#030303" d="M325.92,152.216c3.057,5.586,3.382,11.462,1.572,17.445
		c-0.619,2.043-1.68,4.21-4.21,4.419c-2.254,0.186-3.689-1.419-4.711-3.209c-3.482-6.101-4.047-12.598-1.861-19.183
		c0.949-2.862,2.673-5.556,6.489-3.085C324.13,149.788,323.546,152.116,325.92,152.216z"/>
	<path fill-rule="evenodd" clip-rule="evenodd" fill="#3F3F3F" d="M325.92,152.216c-0.927,0.421-1.975,1.207-2.878,0.455
		c-1.552-1.292,0.307-2.689,0.157-4.068C324.728,149.338,325.466,150.67,325.92,152.216z"/>
	<path fill-rule="evenodd" clip-rule="evenodd" fill="#040404" d="M178.5,147.534c-0.392,5.045-1.087,9.276-3.487,13.036
		c-1.2,1.881-2.684,3.759-5.063,3.44c-2.591-0.348-3.681-2.644-4.224-4.978c-1.461-6.279-0.558-12.252,2.667-17.838
		c1.12-1.939,2.673-3.689,5.065-3.447c2.473,0.251,3.438,2.472,4.046,4.571C178.057,144.226,178.263,146.234,178.5,147.534z"/>
</g>
</svg>
