<?xml version="1.0" encoding="utf-8"?>
<!-- Generator: Adobe Illustrator 16.0.0, SVG Export Plug-In . SVG Version: 6.00 Build 0)  -->
<!DOCTYPE svg PUBLIC "-//W3C//DTD SVG 1.1//EN" "http://www.w3.org/Graphics/SVG/1.1/DTD/svg11.dtd">
<svg version="1.1" id="Layer_1" xmlns:sketch="http://www.bohemiancoding.com/sketch/ns"
	 xmlns="http://www.w3.org/2000/svg" xmlns:xlink="http://www.w3.org/1999/xlink" x="0px" y="0px" width="338px" height="338px"
	 viewBox="-20 82.323 338 338" enable-background="new -20 82.323 338 338" xml:space="preserve">
<title>Slice 1</title>
<description>Created with Sketch (http://www.bohemiancoding.com/sketch)</description>
<g id="Page_1">
	<g id="Group">
		<path id="Shape" fill="#E44F26" d="M27.345,386.272L0.274,82.653h297.451l-27.099,303.57l-121.81,33.77L27.345,386.272z"/>
		<path id="Shape_1_" fill="#F1662A" d="M149,394.182l98.427-27.288l23.158-259.415H149V394.182z"/>
		<path id="Shape_2_" fill="#EBEBEB" d="M149,220.087H99.725l-3.404-38.132H149v-37.239h-0.129H55.625l0.892,9.991l9.152,102.616
			H149V220.087z"/>
		<path id="Shape_3_" fill="#EBEBEB" d="M149,316.795l-0.163,0.046l-41.473-11.199l-2.651-29.697H84.562H67.333l5.217,58.467
			l76.278,21.176l0.172-0.048V316.795z"/>
		<path id="Shape_8_" fill="#FFFFFF" d="M148.871,220.087v37.236h45.854l-4.322,48.294l-41.532,11.21v38.742l76.34-21.158l0.56-6.29
			l8.75-98.035l0.908-9.999h-10.033H148.871z"/>
		<path id="Shape_9_" fill="#FFFFFF" d="M148.871,144.716v23.128v14.02v0.092h89.827h0.119l0.748-8.37l1.695-18.878l0.891-9.991
			H148.871z"/>
	</g>
</g>
</svg>
