<?xml version="1.0" encoding="utf-8"?>
<!-- Generator: Adobe Illustrator 16.0.0, SVG Export Plug-In . SVG Version: 6.00 Build 0)  -->
<!DOCTYPE svg PUBLIC "-//W3C//DTD SVG 1.1//EN" "http://www.w3.org/Graphics/SVG/1.1/DTD/svg11.dtd">
<svg version="1.1" id="Layer_1" xmlns="http://www.w3.org/2000/svg" xmlns:xlink="http://www.w3.org/1999/xlink" x="0px" y="0px"
	 width="235.439px" height="235.439px" viewBox="0 0 235.439 235.439" enable-background="new 0 0 235.439 235.439"
	 xml:space="preserve">
<g>
	<path fill-rule="evenodd" clip-rule="evenodd" fill="#46483E" d="M58.476,113.296c0-0.541-0.285-1.039-0.753-1.309l-12.469-7.175
		c-0.211-0.124-0.447-0.188-0.687-0.198c-0.021,0-0.111,0-0.129,0c-0.238,0.01-0.475,0.074-0.688,0.198l-12.469,7.175
		c-0.465,0.27-0.754,0.768-0.754,1.309l0.027,19.323c0,0.268,0.14,0.518,0.376,0.65c0.231,0.139,0.518,0.139,0.748,0l7.41-4.244
		c0.469-0.277,0.754-0.77,0.754-1.307v-9.026c0-0.539,0.285-1.037,0.752-1.305l3.155-1.816c0.235-0.137,0.492-0.203,0.755-0.203
		c0.257,0,0.521,0.066,0.749,0.203l3.154,1.816c0.467,0.268,0.753,0.766,0.753,1.305v9.026c0,0.537,0.289,1.031,0.755,1.307
		l7.408,4.244c0.232,0.139,0.522,0.139,0.753,0c0.229-0.133,0.374-0.383,0.374-0.65L58.476,113.296z"/>
	<path fill-rule="evenodd" clip-rule="evenodd" fill="#46483E" d="M125.056,86.735c-0.233-0.13-0.518-0.127-0.748,0.008
		s-0.372,0.382-0.372,0.649v19.135c0,0.188-0.101,0.362-0.264,0.457s-0.363,0.094-0.526,0l-3.123-1.799
		c-0.466-0.269-1.04-0.268-1.505,0l-12.474,7.198c-0.466,0.27-0.753,0.767-0.753,1.305v14.401c0,0.538,0.287,1.035,0.753,1.304
		l12.474,7.204c0.466,0.27,1.04,0.27,1.506,0.001l12.476-7.205c0.466-0.269,0.753-0.766,0.753-1.304V92.193
		c0-0.546-0.296-1.049-0.772-1.315L125.056,86.735z M123.899,123.358c0,0.135-0.072,0.259-0.188,0.326l-4.283,2.469
		c-0.116,0.067-0.259,0.067-0.375,0l-4.283-2.469c-0.117-0.067-0.188-0.191-0.188-0.326v-4.944c0-0.134,0.072-0.258,0.188-0.326
		l4.283-2.473c0.117-0.068,0.26-0.068,0.377,0l4.282,2.473c0.117,0.068,0.188,0.192,0.188,0.326V123.358z"/>
	<path fill-rule="evenodd" clip-rule="evenodd" fill="#46483E" d="M169.683,118.282c0.464-0.27,0.749-0.766,0.749-1.302v-3.489
		c0-0.537-0.286-1.033-0.75-1.303l-12.394-7.196c-0.466-0.271-1.042-0.271-1.509-0.002l-12.47,7.198
		c-0.466,0.27-0.753,0.767-0.753,1.305v14.397c0,0.541,0.29,1.04,0.761,1.309l12.392,7.061c0.457,0.261,1.018,0.264,1.478,0.008
		l7.495-4.167c0.237-0.132,0.385-0.381,0.387-0.652c0.002-0.272-0.143-0.523-0.378-0.659l-12.549-7.201
		c-0.233-0.134-0.378-0.383-0.378-0.653v-4.512c0-0.27,0.144-0.518,0.377-0.652l3.905-2.252c0.232-0.134,0.52-0.134,0.752,0
		l3.907,2.252c0.233,0.135,0.377,0.383,0.377,0.652v3.55c0,0.27,0.144,0.519,0.378,0.652c0.233,0.135,0.521,0.134,0.754-0.001
		L169.683,118.282z"/>
	<path fill-rule="evenodd" clip-rule="evenodd" fill="#FFFFFF" d="M81.157,104.915c0.466-0.269,1.04-0.269,1.506,0l12.472,7.198
		c0.466,0.269,0.753,0.766,0.753,1.305v14.405c0,0.538-0.287,1.035-0.753,1.304l-12.472,7.204c-0.466,0.27-1.041,0.27-1.507,0
		l-12.469-7.204c-0.466-0.269-0.753-0.766-0.753-1.304v-14.406c0-0.538,0.287-1.035,0.753-1.304L81.157,104.915z"/>
	<path fill="#FFFFFF" d="M193.899,136.535c-0.43,0-0.857-0.111-1.233-0.33l-3.927-2.322c-0.586-0.328-0.3-0.445-0.106-0.512
		c0.782-0.271,0.94-0.334,1.775-0.809c0.087-0.049,0.202-0.029,0.292,0.023l3.017,1.791c0.109,0.061,0.264,0.061,0.364,0
		l11.761-6.789c0.109-0.062,0.18-0.188,0.18-0.318v-13.571c0-0.133-0.07-0.258-0.183-0.324l-11.756-6.783
		c-0.108-0.063-0.253-0.063-0.362,0l-11.753,6.785c-0.114,0.064-0.187,0.193-0.187,0.322v13.571c0,0.131,0.072,0.254,0.186,0.314
		l3.222,1.861c1.748,0.875,2.818-0.154,2.818-1.189v-13.399c0-0.189,0.152-0.34,0.342-0.34h1.491c0.187,0,0.341,0.15,0.341,0.34
		v13.399c0,2.334-1.271,3.672-3.482,3.672c-0.68,0-1.215,0-2.709-0.736l-3.084-1.775c-0.762-0.441-1.233-1.264-1.233-2.146v-13.571
		c0-0.883,0.472-1.705,1.233-2.144l11.761-6.796c0.744-0.421,1.733-0.421,2.472,0l11.76,6.796c0.762,0.441,1.235,1.261,1.235,2.144
		v13.571c0,0.883-0.474,1.703-1.235,2.146l-11.76,6.789C194.761,136.424,194.334,136.535,193.899,136.535z"/>
	<path fill="#FFFFFF" d="M197.531,127.186c-5.146,0-6.225-2.363-6.225-4.344c0-0.189,0.151-0.34,0.34-0.34h1.521
		c0.17,0,0.312,0.123,0.338,0.289c0.229,1.547,0.914,2.328,4.026,2.328c2.478,0,3.532-0.561,3.532-1.875
		c0-0.758-0.299-1.32-4.149-1.697c-3.218-0.318-5.208-1.028-5.208-3.603c0-2.373,2-3.789,5.354-3.789
		c3.768,0,5.632,1.309,5.868,4.113c0.009,0.098-0.025,0.189-0.09,0.262c-0.064,0.068-0.154,0.109-0.249,0.109h-1.526
		c-0.158,0-0.298-0.113-0.33-0.266c-0.366-1.629-1.257-2.15-3.673-2.15c-2.705,0-3.02,0.943-3.02,1.648
		c0,0.855,0.371,1.105,4.023,1.588c3.614,0.479,5.331,1.155,5.331,3.694C203.395,125.717,201.258,127.186,197.531,127.186z"/>
	<g>
		<path fill="#FFFFFF" d="M213.748,104.79v0.349h-0.989v2.579h-0.399v-2.579h-0.986v-0.349H213.748z"/>
		<path fill="#FFFFFF" d="M214.102,104.79h0.568l0.841,2.475l0.837-2.475h0.564v2.928h-0.379v-1.728
			c0-0.061,0.001-0.159,0.003-0.296c0.004-0.141,0.006-0.289,0.006-0.446l-0.837,2.47h-0.393l-0.844-2.47v0.088
			c0,0.072,0,0.182,0.005,0.33c0.003,0.146,0.007,0.254,0.007,0.324v1.728h-0.379V104.79z"/>
	</g>
	<path fill-rule="evenodd" clip-rule="evenodd" fill="#FFFFFF" d="M156.35,117.608c0.09-0.052,0.199-0.052,0.289,0l2.394,1.382
		c0.09,0.052,0.145,0.146,0.145,0.25v2.764c0,0.104-0.055,0.199-0.145,0.25l-2.394,1.383c-0.09,0.051-0.199,0.051-0.289-0.001
		l-2.392-1.382c-0.09-0.051-0.145-0.146-0.145-0.25v-2.764c0-0.104,0.055-0.198,0.145-0.25L156.35,117.608z"/>
</g>
</svg>
