<?xml version="1.0" encoding="utf-8"?>
<!-- Generator: Adobe Illustrator 16.0.0, SVG Export Plug-In . SVG Version: 6.00 Build 0)  -->
<!DOCTYPE svg PUBLIC "-//W3C//DTD SVG 1.1//EN" "http://www.w3.org/Graphics/SVG/1.1/DTD/svg11.dtd">
<svg version="1.1" xmlns="http://www.w3.org/2000/svg" xmlns:xlink="http://www.w3.org/1999/xlink" x="0px" y="0px" width="128px"
	 height="128px" viewBox="0 0 128 128" enable-background="new 0 0 128 128" xml:space="preserve">
<g id="Layer_1" display="none" opacity="0.4">
	<path display="inline" fill="none" stroke="#231F20" stroke-miterlimit="10" d="M36.898,96.25
		c-17.673,0-32.106-14.452-32.106-32.125c0-17.673,14.274-31.812,31.947-31.812c17.674,0,31.947,14.188,31.947,32.188H37"/>
	<path display="inline" fill="none" stroke="#231F20" stroke-width="0.8" stroke-miterlimit="10" d="M123.313,86.627
		c-12.497,12.498-32.758,12.497-45.254,0c-12.497-12.496-12.497-32.757,0-45.254s32.758-12.497,45.254,0"/>
	<path display="inline" fill="none" stroke="#231F20" stroke-width="0.8" stroke-miterlimit="10" d="M59.313,86.627
		c-12.497,12.498-32.758,12.497-45.254,0c-12.497-12.496-12.497-32.757,0-45.254s32.758-12.497,45.254,0"/>
</g>
<g id="Layer_2">
	<rect x="-5" y="-4" fill="#AAAAAA" width="139" height="137"/>
	<path fill="none" stroke="#FFFFFF" stroke-width="2" stroke-miterlimit="10" d="M123.627,86.627
		c-12.497,12.498-32.758,12.497-45.255,0S65.875,53.87,78.373,41.373c12.496-12.497,32.757-12.497,45.254,0"/>
	<path fill="none" stroke="#FFFFFF" stroke-width="2" stroke-miterlimit="10" d="M37,65h31.999c0-9-2.954-16.709-9.372-23.128
		c-12.497-12.497-32.758-12.746-45.254-0.25c-12.497,12.497-12.497,32.632,0,45.129c12.497,12.497,32.759,12.935,45.256,0.438"/>
</g>
</svg>
