<?xml version="1.0" encoding="utf-8"?>
<!-- Generator: Adobe Illustrator 16.0.0, SVG Export Plug-In . SVG Version: 6.00 Build 0)  -->
<!DOCTYPE svg PUBLIC "-//W3C//DTD SVG 1.1//EN" "http://www.w3.org/Graphics/SVG/1.1/DTD/svg11.dtd">
<svg version="1.1" id="Layer_1" xmlns="http://www.w3.org/2000/svg" xmlns:xlink="http://www.w3.org/1999/xlink" x="0px" y="0px"
	 width="1280px" height="720px" viewBox="0 0 1280 720" enable-background="new 0 0 1280 720" xml:space="preserve">
<g>
	<rect x="10" y="10" fill="#95C2E7" width="1260" height="700"/>
	<path fill="#D1D1D1" d="M1260,20v680H20V20H1260 M1280,0H0v720h1280V0L1280,0z"/>
</g>
<g id="Happiness">
	<circle fill="#FFFFFF" cx="539.333" cy="254.818" r="27.806"/>
	<path fill="#FFFFFF" d="M740.666,227.012c15.363,0,27.807,12.447,27.807,27.806c0,15.354-12.442,27.807-27.807,27.807
		c-15.355,0-27.807-12.452-27.807-27.807C712.859,239.459,725.311,227.012,740.666,227.012z"/>
	<path fill="none" stroke="#FFFFFF" stroke-width="17.7961" stroke-miterlimit="10" d="M513.201,458.51
		c0,0,50.017,34.479,126.856,34.479c76.833,0,127.007-34.34,127.007-34.34"/>
</g>
</svg>
